<svg width="110" height="20" viewBox="0 0 110 20" fill="none" xmlns="http://www.w3.org/2000/svg">
<path d="M0 1.86556C0 1.00831 0.717698 0.320997 1.60404 0.320997C2.49429 0.320997 3.20807 1.01208 3.20807 1.86556C3.20807 2.69637 2.49037 3.41012 1.60404 3.41012C0.717698 3.41012 0 2.69637 0 1.86556ZM0.0196092 6.81268C0.0196092 5.95166 0.713776 5.28323 1.60796 5.28323C2.50214 5.28323 3.19631 5.95166 3.19631 6.81268V18.4063C3.19631 19.2674 2.50214 19.9622 1.60796 19.9622C0.713776 19.9622 0.0196092 19.2674 0.0196092 18.4063V6.81268Z" fill="black"/>
<path d="M5.96513 11.7372C5.96513 7.76057 8.82415 5.2568 12.4636 5.2568C16.1031 5.2568 18.9621 7.76057 18.9621 11.7372V18.4101C18.9621 19.2711 18.2405 19.966 17.3738 19.966C16.4796 19.966 15.7854 19.2711 15.7854 18.4101V11.6239C15.7854 9.31647 14.3108 8.0929 12.4636 8.0929C10.6164 8.0929 9.14183 9.31647 9.14183 11.6239V18.4101C9.14183 19.2711 8.44766 19.966 7.55348 19.966C6.6593 19.966 5.96513 19.2711 5.96513 18.4101V11.7372Z" fill="black"/>
<path d="M21.7035 11.7372C21.7035 7.76057 24.5625 5.2568 28.202 5.2568C31.8415 5.2568 34.7005 7.76057 34.7005 11.7372V18.4101C34.7005 19.2711 33.9789 19.966 33.1121 19.966C32.218 19.966 31.5238 19.2711 31.5238 18.4101V11.6239C31.5238 9.31647 30.0492 8.0929 28.202 8.0929C26.3548 8.0929 24.8802 9.31647 24.8802 11.6239V18.4101C24.8802 19.2711 24.186 19.966 23.2919 19.966C22.3977 19.966 21.7035 19.2711 21.7035 18.4101V11.7372Z" fill="black"/>
<path d="M37.4418 1.52946C37.4418 0.668429 38.136 0 39.0302 0C39.9244 0 40.6185 0.668429 40.6185 1.52946V6.48036C41.5441 5.7855 42.7834 5.2568 44.2855 5.2568C47.721 5.2568 50.435 7.76058 50.435 11.7372V18.4101C50.435 19.2712 49.7133 19.966 48.8466 19.966C47.9524 19.966 47.2582 19.2712 47.2582 18.4101V11.6239C47.2582 9.29003 45.7836 8.0929 43.9364 8.0929C42.1167 8.0929 40.6146 9.29003 40.6146 11.6239V13.4252C40.6146 14.2863 39.9204 14.9811 39.0263 14.9811C38.1321 14.9811 37.4379 14.2863 37.4379 13.4252V1.52946H37.4418ZM37.4536 18.4328C37.4536 17.5755 38.1713 16.8882 39.0576 16.8882C39.9479 16.8882 40.6617 17.5793 40.6617 18.4328C40.6617 19.2636 39.944 19.9773 39.0576 19.9773C38.1674 19.9811 37.4536 19.2674 37.4536 18.4328Z" fill="black"/>
<path d="M52.5724 12.6246C52.5724 8.50831 55.8353 5.2568 60.2239 5.2568C64.6438 5.2568 67.8754 8.50831 67.8754 12.6246C67.8754 16.7409 64.6399 19.9924 60.2239 19.9924C55.8353 19.9924 52.5724 16.7409 52.5724 12.6246ZM64.6713 12.6246C64.6713 10.1208 62.7652 8.0929 60.2239 8.0929C57.6825 8.0929 55.7765 10.1208 55.7765 12.6246C55.7765 15.0982 57.6825 17.1563 60.2239 17.1563C62.7652 17.1563 64.6713 15.102 64.6713 12.6246Z" fill="black"/>
<path d="M70.0441 6.81269C70.0441 5.95166 70.7383 5.28323 71.6325 5.28323C72.5267 5.28323 73.2208 5.95166 73.2208 6.81269V13.5989C73.2208 15.9328 74.6915 17.1563 76.5427 17.1563C78.3938 17.1563 79.8645 15.9328 79.8645 13.5989V6.81269C79.8645 5.95166 80.5586 5.28323 81.4528 5.28323C82.3195 5.28323 83.0412 5.95166 83.0412 6.81269V13.4856C83.0412 17.4622 80.1821 19.9924 76.5427 19.9924C72.9032 19.9924 70.0441 17.4622 70.0441 13.4856V6.81269Z" fill="black"/>
<path d="M86.6179 15.2379C87.0806 15.2379 87.4846 15.4343 87.716 15.7931C88.1474 16.4048 88.7553 17.2394 89.9985 17.2394C90.9515 17.2394 91.6457 16.5446 91.6457 15.7364C91.6457 14.5959 90.5476 14.1503 89.1906 13.7085C87.3709 13.0967 85.3197 12.3452 85.3197 9.48263C85.3197 7.11858 87.3395 5.2568 89.9985 5.2568C92.4536 5.2568 94.7048 6.70317 94.7048 8.45544C94.7048 9.23338 94.042 9.81873 93.2341 9.81873C92.9164 9.81873 92.5125 9.70921 92.3085 9.31646C91.8183 8.78776 91.1241 7.98338 89.9985 7.98338C89.0181 7.98338 88.3827 8.67825 88.3827 9.4864C88.3827 10.6269 89.5946 10.9894 91.0692 11.4615C92.8301 11.9902 94.8225 12.8814 94.8225 15.6609C94.8225 17.9947 92.7164 20 89.9985 20C87.4297 20 85.1746 18.3875 85.1746 16.6616C85.1746 15.8799 85.81 15.2379 86.6179 15.2379Z" fill="black"/>
<path d="M96.3479 12.6246C96.3479 8.50831 99.6109 5.2568 104 5.2568C106.251 5.2568 108.012 6.11783 108.996 6.97885C109.341 7.28474 109.573 7.70015 109.573 8.14577C109.573 8.53475 109.459 8.86707 109.11 9.25982L104.662 14.3467C104.345 14.7092 104 14.8489 103.564 14.8489C102.697 14.8489 102.062 14.2636 102.062 13.4592C102.062 13.1269 102.148 12.7908 102.407 12.5415L105.902 8.59139C105.411 8.25906 104.631 8.08913 103.996 8.08913C101.513 8.08913 99.5482 10.0906 99.5482 12.6209C99.5482 15.1246 101.482 17.1526 103.996 17.1526C105.353 17.1526 106.364 16.5974 107.055 15.9026C107.517 15.54 107.835 15.2077 108.439 15.2077C109.333 15.2077 110 15.8195 110 16.6805C110 16.9864 109.827 17.3754 109.537 17.6813C108.439 18.9615 106.447 19.9887 103.992 19.9887C99.6384 19.9925 96.3479 16.7409 96.3479 12.6246Z" fill="black"/>
</svg>
