<svg width="56" height="45" viewBox="0 0 56 45" fill="none" xmlns="http://www.w3.org/2000/svg">
<path d="M8.654 44.088L6.989 42.534C9.135 41.128 11.096 39.204 12.872 36.762C14.722 34.394 16.202 31.915 17.312 29.325C18.496 26.809 19.088 24.663 19.088 22.887C19.088 21.999 18.866 21.555 18.422 21.555C17.904 21.555 17.164 21.777 16.202 22.221C15.314 22.739 13.834 22.998 11.762 22.998C9.616 22.998 7.655 22.554 5.879 21.666C4.103 20.852 2.697 19.594 1.661 17.892C0.625 16.19 0.107 14.118 0.107 11.676C0.107 8.346 1.143 5.608 3.215 3.462C5.361 1.242 8.284 0.131999 11.984 0.131999C15.536 0.131999 18.422 1.353 20.642 3.795C22.936 6.163 24.083 9.234 24.083 13.008C24.083 17.3 23.306 21.518 21.752 25.662C20.198 29.806 18.237 33.506 15.869 36.762C13.501 40.018 11.096 42.46 8.654 44.088ZM40.5231 44.088L38.8581 42.534C41.0041 41.128 42.9651 39.204 44.7411 36.762C46.5911 34.394 48.0711 31.915 49.1811 29.325C50.3651 26.809 50.9571 24.663 50.9571 22.887C50.9571 21.999 50.7351 21.555 50.2911 21.555C49.7731 21.555 49.0331 21.777 48.0711 22.221C47.1831 22.739 45.7031 22.998 43.6311 22.998C41.4851 22.998 39.5241 22.554 37.7481 21.666C35.9721 20.852 34.5661 19.594 33.5301 17.892C32.4941 16.19 31.9761 14.118 31.9761 11.676C31.9761 8.346 33.0121 5.608 35.0841 3.462C37.2301 1.242 40.1531 0.131999 43.8531 0.131999C47.4051 0.131999 50.2911 1.353 52.5111 3.795C54.8051 6.163 55.9521 9.234 55.9521 13.008C55.9521 17.3 55.1751 21.518 53.6211 25.662C52.0671 29.806 50.1061 33.506 47.7381 36.762C45.3701 40.018 42.9651 42.46 40.5231 44.088Z" fill="#0F1638"/>
</svg>
